<?xml version="1.0" encoding="UTF-8"?>
<!DOCTYPE svg PUBLIC "-//W3C//DTD SVG 1.1//EN" "http://www.w3.org/Graphics/SVG/1.1/DTD/svg11.dtd">
<!-- Creator: CorelDRAW -->
<svg xmlns="http://www.w3.org/2000/svg" xml:space="preserve" width="95.5024mm" height="95.6398mm" version="1.1" style="shape-rendering:geometricPrecision; text-rendering:geometricPrecision; image-rendering:optimizeQuality; fill-rule:evenodd; clip-rule:evenodd"
viewBox="0 0 4663.18 4669.89"
 xmlns:xlink="http://www.w3.org/1999/xlink"
 xmlns:xodm="http://www.corel.com/coreldraw/odm/2003">
 <defs>
  <style type="text/css">
   <![CDATA[
    .str0 {stroke:#373435;stroke-width:9.77;stroke-miterlimit:22.9256;stroke-opacity:0.811765}
    .fil0 {fill:#081B29;fill-opacity:0.811765}
   ]]>
  </style>
   <clipPath id="id0">
    <path d="M4.88 2512.91l0 -355.93c90.91,-1203.72 1096.37,-2152.1 2323.36,-2152.1 1286.85,0 2330.06,1043.2 2330.06,2330.06 0,1286.86 -1043.2,2330.06 -2330.06,2330.06 -1226.99,0 -2232.45,-948.38 -2323.36,-2152.09z"/>
   </clipPath>
 </defs>
 <g id="Camada_x0020_1">
  <metadata id="CorelCorpID_0Corel-Layer"/>
  <g style="clip-path:url(#id0)">
   <image x="4.88" y="-42.93" width="5746.74" height="7687.95" xlink:href="home_Images\home_ImgID1.png"/>
  </g>
  <path class="fil0 str0" d="M4.88 2512.91l0 -355.93c90.91,-1203.72 1096.37,-2152.1 2323.36,-2152.1 1286.85,0 2330.06,1043.2 2330.06,2330.06 0,1286.86 -1043.2,2330.06 -2330.06,2330.06 -1226.99,0 -2232.45,-948.38 -2323.36,-2152.09z"/>
 </g>
</svg>
